<?xml version="1.0" encoding="utf-8"?>
<!-- Generator: Adobe Illustrator 27.5.0, SVG Export Plug-In . SVG Version: 6.00 Build 0)  -->
<svg version="1.1" xmlns="http://www.w3.org/2000/svg" xmlns:xlink="http://www.w3.org/1999/xlink" x="0px" y="0px"
	 viewBox="0 0 2200 2200" style="enable-background:new 0 0 2200 2200;" xml:space="preserve">
<g id="background">
	<rect x="0" style="fill:#FFFFFF;" width="2200" height="2200"/>
</g>
<g id="Objects">
	<g>
		<path d="M528.075,1332.033c-112.11,16.203-219.063-81.845-238.872-218.979c-25.724-178.024,41.506-354.851,153.617-371.044
			c112.11-16.203,228.519,147.31,252.374,312.382C715.003,1191.536,640.185,1315.84,528.075,1332.033z"/>
		<path d="M865.639,898.626c-112.858,9.671-213.942-94.413-225.762-232.472c-15.352-179.21,62.026-351.842,174.893-361.504
			c112.858-9.671,219.586,160.326,233.817,326.501C1060.407,769.22,978.497,888.974,865.639,898.626z"/>
		<path d="M1671.925,1332.033c112.11,16.203,219.063-81.845,238.872-218.979c25.724-178.024-41.506-354.851-153.617-371.044
			c-112.11-16.203-228.519,147.31-252.374,312.382C1484.997,1191.536,1559.815,1315.84,1671.925,1332.033z"/>
		<path d="M1334.361,898.626c112.858,9.671,213.942-94.413,225.762-232.472c15.352-179.21-62.026-351.842-174.893-361.504
			c-112.858-9.671-219.586,160.326-233.817,326.501C1139.593,769.22,1221.503,888.974,1334.361,898.626z"/>
		<path d="M1425.641,1895.743c-160.251,0-222.857-70.081-325.641-70.081s-165.39,70.081-325.641,70.081
			c-209.775,0-365.447-260.438-175.202-432.631C835.562,1249.132,902.84,980.023,1100,980.023s264.438,269.11,500.843,483.089
			C1791.089,1635.305,1635.416,1895.743,1425.641,1895.743z"/>
		<g>
			<path style="fill:#FF4545;" d="M1354.608,1441.494c-33.51,152.158-158.953,245.232-254.607,292.902
				c-95.654-47.67-221.113-140.744-254.607-292.902c-11.685-53.069,1.455-116.639,46.169-147.523
				c42.375-29.265,103.574-17.85,142.843,15.48c32.82,27.855,52.784,67.529,65.594,109.019
				c12.795-41.49,32.76-81.164,65.579-109.019c39.27-33.33,100.469-44.745,142.844-15.48
				C1353.138,1324.856,1366.293,1388.425,1354.608,1441.494z"/>
		</g>
	</g>
</g>
</svg>
