<?xml version="1.0" encoding="utf-8"?>
<!-- Generator: Adobe Illustrator 27.5.0, SVG Export Plug-In . SVG Version: 6.00 Build 0)  -->
<svg version="1.1" xmlns="http://www.w3.org/2000/svg" xmlns:xlink="http://www.w3.org/1999/xlink" x="0px" y="0px"
	 viewBox="0 0 2200 2200" style="enable-background:new 0 0 2200 2200;" xml:space="preserve">
<g id="background">
	<rect style="fill:#FFFFFF;" width="2200" height="2200"/>
</g>
<g id="Objects">
	<g>
		<g>
			<g>
				<path d="M1329.746,1372.462c-13.725,24.031-38.721,40.431-65.19,42.774c-50.135,4.448-109.641-37.977-159.951-38.642
					c-50.309,0.665-109.816,43.09-159.951,38.642c-26.469-2.343-51.465-18.743-65.19-42.774
					c-13.725-24.015-15.83-55.058-5.493-80.893c12.522-31.249,40.463-52.177,68.182-69.258
					c27.735-17.097,57.417-32.722,77.822-58.889c20.975-26.88,32.943-65.205,63.702-77.711c4.717-1.916,13.013-3.594,20.928-3.594
					c7.915,0,16.21,1.678,20.928,3.594c30.759,12.506,42.726,50.831,63.702,77.711c20.405,26.168,50.087,41.792,77.822,58.889
					c27.719,17.081,55.66,38.009,68.182,69.258C1345.577,1317.404,1343.471,1348.448,1329.746,1372.462z"/>
			</g>
			<g>
				<path d="M1070.266,990.941c-14.692,43.137-70.083,55.069-101.2,21.778c-10.322-11.046-20.221-26.095-28.339-46.598
					c-12.814-32.387-11.094-69.003-4.008-103.1c5.622-27.056,20.195-57.591,47.577-61.246c26.624-3.554,48.397,20.552,62.014,43.706
					c16.897,28.74,29.799,60.558,31.867,93.832C1079.093,954.079,1076.439,972.823,1070.266,990.941z"/>
			</g>
			<g>
				<path d="M933.622,1103.633c-0.95,24.745-11.294,54.605-40.649,65.629c-30.746,11.54-60.836,4.835-80.621-22.913
					c-9.432-13.226-22.57-41.579-26.212-57.339c-10.169-44.018-5.067-101.038,32.949-117.751
					c13.108-5.766,28.123,1.162,39.579,8.686c27.119,17.812,45.708,45.026,60.293,73.247
					C927.086,1068.91,934.303,1085.795,933.622,1103.633z"/>
			</g>
			<g>
				<path d="M1138.946,990.941c14.692,43.137,70.083,55.069,101.2,21.778c10.322-11.046,20.221-26.095,28.339-46.598
					c12.814-32.387,11.094-69.003,4.008-103.1c-5.622-27.056-20.195-57.591-47.577-61.246
					c-26.624-3.554-48.397,20.552-62.014,43.706c-16.897,28.74-29.799,60.558-31.867,93.832
					C1130.119,954.079,1132.773,972.823,1138.946,990.941z"/>
			</g>
			<g>
				<path d="M1275.59,1103.633c0.95,24.745,11.294,54.605,40.649,65.629c30.746,11.54,60.836,4.835,80.621-22.913
					c9.432-13.226,22.57-41.579,26.212-57.339c10.169-44.018,5.067-101.038-32.949-117.751c-13.108-5.766-28.123,1.162-39.579,8.686
					c-27.119,17.812-45.708,45.026-60.293,73.247C1282.126,1068.91,1274.909,1085.795,1275.59,1103.633z"/>
			</g>
		</g>
		<path d="M1774.657,424.719c-15.865-10.455-33.261-20.179-50.718-28.051c-19.205-8.784-39.418-15.874-59.953-21.267
			c-164.92-42.495-343.146,28.577-452.795,146.715c-43.854,47.119-79.15,101.276-106.209,158.475
			c-25.007-53.848-58.061-105.809-98.757-150.916C901.922,412.668,731.118,339.787,569.178,372.638
			C462.636,394.092,376.09,461.551,322.509,549.99c-38.679,63.649-60.67,136.341-64.029,209.661
			c-7.748,197.529,107.952,377.892,249.978,514.133c117.972,114.508,259.027,210.118,381.5,317.55
			c76.158,66.5,146.85,139.696,201.328,223.434l14.746,22.233c0,0,12.436-22.234,12.436-22.234
			c25.355-43.401,55.585-84.915,88.852-123.258c142.729-165.091,335.711-282.347,491.875-436.533
			c129.034-125.938,235.163-287.422,242.337-467.29C1946.644,652.07,1897.267,504.574,1774.657,424.719z M1641.737,1231.908
			c-176.644,182.351-406.373,329.24-536.867,547.992c-4.186-8.085-32.01-50.997-40.412-63.655
			c-106.883-161.766-260.699-282.881-403.292-414.445c-52.937-48.813-103.94-99.743-149.199-155.006
			c-74.89-92.261-134.643-199.653-148.765-315.66c-10.337-84.914,8.745-174.48,57.647-246.509
			c50.104-73.799,131.407-123.932,220.932-130.349c71.842-5.149,141.776,10.984,206.862,41.028
			c49.777,22.977,95.256,54.843,135.38,92.091c41.363,38.25,76.701,81.368,110.223,127.583c0.021,0.013,10.613,14.087,10.626,14.106
			c17.709-24.971,33.33-45.92,52.576-69.449c41.05-50.013,88.019-96.373,143.689-131.833c98.269-62.594,232.5-98.953,345.057-53.954
			c46.554,18.612,87.362,50.008,121.081,88.146c54.893,62.764,91.668,142.088,92.383,224.466
			C1860.578,955.542,1759.861,1110.537,1641.737,1231.908z"/>
	</g>
</g>
</svg>
